<svg width="39" height="40" viewBox="0 0 39 40" fill="none" xmlns="http://www.w3.org/2000/svg">
<path d="M37.2727 32.7273H30.9091C26.8991 32.7273 23.6365 29.4648 23.6365 25.4548C23.6365 21.4447 26.8991 18.1822 30.9091 18.1822H37.2727C37.7752 18.1822 38.1818 17.7756 38.1818 17.2731V14.5458C38.1818 12.6395 36.7031 11.0892 34.8349 10.9388L29.6139 1.81965C29.1301 0.976257 28.3488 0.373454 27.414 0.123146C26.4836 -0.125458 25.5106 0.00510802 24.6779 0.489788L6.78021 10.9095H3.63682C1.63137 10.9095 0.000488281 12.5403 0.000488281 14.5458V36.3637C0.000488281 38.3691 1.63129 40 3.63682 40H34.5454C36.5509 40 38.1818 38.3692 38.1818 36.3637V33.6364C38.1818 33.1339 37.7752 32.7273 37.2727 32.7273ZM30.7414 7.44967L32.7222 10.9095H24.7987L30.7414 7.44967ZM10.3938 10.9095L25.5931 2.0611C26.0042 1.8205 26.4844 1.75659 26.9435 1.87914C27.4078 2.0034 27.7949 2.30348 28.0355 2.72339L28.0373 2.72671L13.9827 10.9095H10.3938Z" fill="#B4DE4E"/>
</svg>
