<svg width="10" height="10" viewBox="0 0 10 10" fill="none" xmlns="http://www.w3.org/2000/svg">
<path d="M5.6249 2.70825C5.6249 2.87401 5.55905 3.03298 5.44184 3.15019C5.32463 3.2674 5.16566 3.33325 4.9999 3.33325C4.83414 3.33325 4.67517 3.2674 4.55796 3.15019C4.44075 3.03298 4.3749 2.87401 4.3749 2.70825C4.3749 2.54249 4.44075 2.38352 4.55796 2.26631C4.67517 2.1491 4.83414 2.08325 4.9999 2.08325C5.16566 2.08325 5.32463 2.1491 5.44184 2.26631C5.55905 2.38352 5.6249 2.54249 5.6249 2.70825ZM9.9999 7.91658V5.14158C10.0154 3.85719 9.54453 2.61446 8.6817 1.6629C7.81887 0.711353 6.62802 0.121432 5.34823 0.0115827C4.63392 -0.0383933 3.91721 0.0656409 3.24658 0.316646C2.57596 0.567652 1.96707 0.959773 1.46111 1.46648C0.95516 1.97318 0.563942 2.58265 0.313931 3.25365C0.0639201 3.92464 -0.0390514 4.64151 0.0119834 5.35575C0.19615 8.00325 2.53407 9.99992 5.45115 9.99992H7.91657C8.4689 9.99925 8.99842 9.77955 9.38898 9.38899C9.77953 8.99843 9.99924 8.46891 9.9999 7.91658ZM5.29157 0.843249C6.36092 0.937848 7.35487 1.43363 8.07369 2.23098C8.79251 3.02833 9.18295 4.06817 9.16657 5.14158V7.91658C9.16657 8.2481 9.03487 8.56605 8.80045 8.80047C8.56603 9.03489 8.24809 9.16658 7.91657 9.16658H5.45115C2.93698 9.16658 0.9999 7.54158 0.84365 5.29825C0.80263 4.72683 0.879889 4.15308 1.0706 3.61286C1.26131 3.07264 1.56138 2.57755 1.95206 2.15853C2.34273 1.7395 2.81562 1.40555 3.34118 1.17752C3.86674 0.949492 4.43367 0.832295 5.00657 0.833249C5.10115 0.833249 5.19657 0.836999 5.29157 0.843249ZM5.83323 7.49992V4.99992C5.83323 4.7789 5.74544 4.56694 5.58916 4.41066C5.43288 4.25438 5.22091 4.16658 4.9999 4.16658H4.58323C4.47273 4.16658 4.36675 4.21048 4.28861 4.28862C4.21047 4.36676 4.16657 4.47274 4.16657 4.58325C4.16657 4.69376 4.21047 4.79974 4.28861 4.87788C4.36675 4.95602 4.47273 4.99992 4.58323 4.99992H4.9999V7.49992C4.9999 7.61042 5.0438 7.7164 5.12194 7.79454C5.20008 7.87268 5.30606 7.91658 5.41657 7.91658C5.52707 7.91658 5.63305 7.87268 5.71119 7.79454C5.78934 7.7164 5.83323 7.61042 5.83323 7.49992Z" fill="#B4DE4E"/>
</svg>
